<?xml version="1.0" encoding="UTF-8" standalone="no"?>
<svg
   width="162.61798pt"
   height="57.289272pt"
   viewBox="0 0 162.61799 57.28927"
   version="1.1"
   id="svg896"
   sodipodi:docname="UoG_keyline.svg"
   inkscape:version="1.2.1 (9c6d41e4, 2022-07-14)"
   xmlns:inkscape="http://www.inkscape.org/namespaces/inkscape"
   xmlns:sodipodi="http://sodipodi.sourceforge.net/DTD/sodipodi-0.dtd"
   xmlns="http://www.w3.org/2000/svg"
   xmlns:svg="http://www.w3.org/2000/svg">
  <sodipodi:namedview
     id="namedview898"
     pagecolor="#ffffff"
     bordercolor="#666666"
     borderopacity="1.0"
     inkscape:showpageshadow="2"
     inkscape:pageopacity="0.0"
     inkscape:pagecheckerboard="0"
     inkscape:deskcolor="#d1d1d1"
     inkscape:document-units="pt"
     showgrid="false"
     inkscape:zoom="5.0271194"
     inkscape:cx="157.34657"
     inkscape:cy="53.808152"
     inkscape:window-width="2560"
     inkscape:window-height="1387"
     inkscape:window-x="0"
     inkscape:window-y="25"
     inkscape:window-maximized="1"
     inkscape:current-layer="svg896" />
  <defs
     id="defs710">
    <clipPath
       id="clip-0">
      <path
         clip-rule="nonzero"
         d="m 0,40 h 34 v 8.078125 H 0 Z m 0,0"
         id="path692" />
    </clipPath>
    <clipPath
       id="clip-1">
      <path
         clip-rule="nonzero"
         d="m 0,39 h 32 v 9.078125 H 0 Z m 0,0"
         id="path695" />
    </clipPath>
    <clipPath
       id="clip-2">
      <path
         clip-rule="nonzero"
         d="m 141,7 h 14.39844 V 26 H 141 Z m 0,0"
         id="path698" />
    </clipPath>
    <clipPath
       id="clip-3">
      <path
         clip-rule="nonzero"
         d="M 42,21 H 61 V 48.078125 H 42 Z m 0,0"
         id="path701" />
    </clipPath>
    <clipPath
       id="clip-4">
      <path
         clip-rule="nonzero"
         d="m 108,29 h 14 v 19.078125 h -14 z m 0,0"
         id="path704" />
    </clipPath>
    <clipPath
       id="clip-5">
      <path
         clip-rule="nonzero"
         d="m 133,29 h 22.39844 V 42 H 133 Z m 0,0"
         id="path707" />
    </clipPath>
  </defs>
  <rect
     style="fill:#0d3158;fill-opacity:1;stroke:none;stroke-width:0.75"
     id="rect1006"
     width="162.61798"
     height="57.289272"
     x="8.8817842e-16"
     y="4.4408921e-16"
     ry="0"
     rx="0" />
  <path
     fill-rule="nonzero"
     fill="#0d3158"
     fill-opacity="1"
     d="m 5.3451715,29.264174 c -0.00781,7.6875 9.4960935,16.167968 15.1796865,16.460937 h -0.01562 c 5.683593,-0.292969 15.1875,-8.773437 15.179687,-16.464843 0.03906,-10.441407 0,-24.8203135 0,-24.8203135 L 5.3451715,4.4438605 V 29.264174"
     id="path712" />
  <path
     fill-rule="nonzero"
     fill="#ffffff"
     fill-opacity="1"
     d="M 5.7357965,4.8383915 V 29.264174 c -0.00391,7.566406 9.4687495,15.761718 14.7812495,16.066406 5.3125,-0.304688 14.785156,-8.5 14.777344,-16.070312 0.03516,-9.363282 0.0078,-22.0429695 0,-24.4257825 z m 14.7812495,41.2851575 -0.01953,-0.0039 C 14.782671,45.814955 4.9428277,37.369642 4.9506403,29.260268 V 4.0493295 l 31.1328117,-0.00391 v 0.394531 c 0,0.144531 0.03906,14.5000005 0,24.8242195 0.0078,8.105468 -9.832031,16.550781 -15.546875,16.855468 l -0.01953,0.0039"
     id="path714" />
  <path
     fill-rule="nonzero"
     fill="#a3e2fa"
     fill-opacity="1"
     d="m 20.290484,14.904799 v 26.730469 h 0.96875 V 14.904799 h -0.96875"
     id="path716" />
  <path
     fill-rule="nonzero"
     fill="#fccc21"
     fill-opacity="1"
     d="m 27.145952,14.740736 c 0.863282,-0.0039 2.253906,0.0039 3.15625,0.0039 0.28125,0 0.742188,-0.08594 0.484375,0.535157 -0.226562,0.546875 -0.558593,1.3125 -0.699219,1.640625 -0.476562,0 -2.410156,0 -2.414062,-0.0078 -0.152344,-0.359375 -0.375,-0.871093 -0.652344,-1.515625 -0.148437,-0.34375 -0.222656,-0.65625 0.125,-0.65625 z m -0.4375,9.367188 h 4.765625 c 1.40625,0 1.535157,0.195312 1.632813,0.496094 -0.05859,-0.46875 -0.363282,-2.867188 -0.574219,-4.605469 -0.05469,-0.453125 -0.214844,-1.699219 -0.839844,-2.441407 -0.199219,-0.238281 -0.296875,-0.359374 -0.722656,-0.542968 0.03125,-0.09375 0.421875,-1.058594 0.710937,-1.839844 0.148438,-0.398438 -0.01172,-0.796875 -0.316406,-0.984375 -0.269531,-0.15625 -0.609375,-0.164063 -0.851562,-0.164063 -1.632813,0 -2.890625,0.0039 -3.394532,0.0039 -0.875,0 -1.28125,0.554687 -1.011718,1.222656 0.203125,0.507813 0.539062,1.375 0.691406,1.769531 -1.074219,0.359375 -1.425781,1.824219 -1.582031,3.09375 -0.261719,2.140625 -0.613281,4.992188 -0.636719,5.164063 -0.03906,0.273437 -0.08203,0.496093 0.363281,0.515625 0.847657,0.05469 1.835938,0.0625 3.5,0.01953 0.160157,0.08984 0.367188,0.148437 0.640625,0.136719 0.269532,-0.0039 0.46875,-0.07422 0.609375,-0.175782 0.679688,-0.02344 1.449219,-0.05469 2.332031,-0.08984 -0.773437,-0.01953 -1.503906,-0.04297 -2.171874,-0.05859 0.238281,-0.300781 0.214843,-0.714844 0.195312,-0.792969 -0.101562,1.113282 -1.550781,1.007813 -1.191406,-0.175781 -0.15625,0 -0.5625,0 -0.816406,0.207031 -0.07031,0.175782 -0.04688,0.464844 0.117187,0.703125 -0.9375,-0.03906 -1.710937,-0.07422 -2.273437,-0.105469 -0.289063,-0.01562 -0.425782,-0.222656 -0.28125,-0.414062 0.605468,-0.792969 0.644531,-0.941406 1.105468,-0.941406"
     id="path718" />
  <path
     fill-rule="nonzero"
     fill="#ffffff"
     fill-opacity="1"
     d="m 20.548296,41.521986 c 0,0.3125 -0.207031,0.570313 -0.46875,0.570313 -0.257812,0 -0.46875,-0.257813 -0.46875,-0.570313 v -2.652344 c 0,-0.3125 0.210938,-0.570312 0.46875,-0.570312 0.261719,0 0.46875,0.257812 0.46875,0.570312 v 2.652344"
     id="path720" />
  <path
     fill-rule="nonzero"
     fill="#df9823"
     fill-opacity="1"
     d="m 14.005327,10.021986 c 0.152344,-0.062501 0.367188,-0.046876 0.566407,-0.046876 -0.21875,-0.183593 -0.417969,-0.253906 -0.539063,-0.285156 -0.28125,-1.0625 -1.816406,-0.773437 -1.96875,0.167969 -0.05469,0.3398445 -1.261719,0.4882815 -2.6406245,2.3359375 -0.636719,0.847657 -1.519531,1.585938 -1.785156,1.757813 -0.269532,0.164062 0.382812,0.117187 0.6875,-0.203125 0.28125,0.285156 0.839844,-0.570313 1.6757805,-0.714844 0.222656,-0.03906 3,-0.542969 2.269531,-2.132813 0.980469,1.257813 -0.652344,2.164063 -1.683594,2.265626 0.08984,0.04687 0.625,0.08984 0.6875,0.113281 0.152344,0.05469 -0.04687,0.242187 0.07813,0.3125 0.300781,0.164062 0.894531,0.726562 0.894531,0.726562 0,0 0.339843,-0.117187 0.1875,-0.269531 -0.460938,-0.300781 -0.585938,-0.394531 -0.699219,-0.582031 -0.01172,-0.01172 -0.15625,-0.289063 0.144531,-0.371094 0.433594,-0.03516 1.859375,-0.542969 1.617188,-2.328125 -0.03906,-0.285156 0.160156,-0.589844 0.507812,-0.746094"
     id="path722" />
  <path
     fill-rule="nonzero"
     fill="#0d3158"
     fill-opacity="1"
     d="m 13.798296,9.7251105 c 0,0.09375 -0.07031,0.167969 -0.152344,0.167969 -0.08594,0 -0.152344,-0.074219 -0.152344,-0.167969 0,-0.09375 0.06641,-0.171875 0.152344,-0.171875 0.08203,0 0.152344,0.078125 0.152344,0.171875"
     id="path724" />
  <path
     fill-rule="nonzero"
     fill="#ffffff"
     fill-opacity="1"
     d="m 20.985796,38.201674 v 3.753906 h 0.515625 v -3.753906 h -0.515625"
     id="path726" />
  <path
     fill-rule="nonzero"
     fill="#fccc21"
     fill-opacity="1"
     d="m 21.954546,42.541518 c 0.15625,-0.160157 0.246094,-0.375 0.246094,-0.617188 0,-0.488281 -0.398438,-0.894531 -0.890625,-0.894531 h -1.519531 c -0.496094,0 -0.898438,0.40625 -0.898438,0.894531 0,0.234375 0.08984,0.4375 0.234375,0.597656 -0.183594,0.164063 -0.511719,0.484375 -0.605469,0.59375 1.019532,0.449219 2.957032,0.410156 4.050782,-0.0078 -0.101563,-0.08594 -0.449219,-0.410156 -0.617188,-0.566406"
     id="path728" />
  <path
     fill-rule="nonzero"
     fill="#a3e2fa"
     fill-opacity="1"
     d="m 20.524858,11.717299 c 0,0.01953 -0.0039,0.01563 -0.0039,-0.0078 -0.65625,-0.589844 -2.777344,-0.84375 -4.140625,-0.492187 0.08984,0.164062 0.199219,0.695312 0.257813,0.90625 2.011718,-0.671875 3.882812,0.304687 3.882812,0.304687 0,-0.0039 0,-0.01172 0.0039,-0.01563 0,0.0039 0,0.01563 0,0.01953 0,0 1.875,-0.976562 3.886719,-0.304687 0.05469,-0.210937 0.167969,-0.738281 0.257813,-0.90625 -1.363282,-0.347656 -3.484375,-0.09766 -4.144532,0.496094"
     id="path730" />
  <path
     fill-rule="nonzero"
     fill="#ffffff"
     fill-opacity="1"
     d="m 21.134234,14.900892 v 20.714844 h 0.300781 V 14.900892 h -0.300781"
     id="path732" />
  <path
     fill-rule="nonzero"
     fill="#ffffff"
     fill-opacity="1"
     d="m 19.626421,14.904799 v 19.21875 h 0.957031 v -19.21875 h -0.957031"
     id="path734" />
  <path
     fill-rule="nonzero"
     fill="#0d3158"
     fill-opacity="1"
     d="m 21.505327,22.295424 c 0.0625,-0.222656 0.08984,-0.777344 0,-0.953125 -0.453125,0 -1.152343,0.0039 -1.5625,-0.0078 0.9375,0.34375 1.5625,0.960938 1.5625,0.960938"
     id="path736" />
  <path
     fill-rule="nonzero"
     fill="#0d3158"
     fill-opacity="1"
     d="m 18.134234,39.408705 c 0.539062,0.08203 3.421874,0.21875 3.421874,0.21875 l 0.46875,1.222656 c 0,0 -2.515624,-0.06641 -3.890624,-1.441406"
     id="path738" />
  <path
     fill-rule="nonzero"
     fill="#a3e2fa"
     fill-opacity="1"
     d="m 29.935015,30.64308 c -0.902344,-0.582031 -1.996094,-0.136719 -3.179688,-1.128906 0.0039,3.085937 2.25,3.703125 0.984375,4.527344 -1.125,0.734374 -2.21875,0.917968 -3.351562,0.824218 0.09766,-0.15625 0.265625,-0.433594 0.402344,-0.574218 -1.390626,-0.179688 -2.597657,-0.07813 -3.109376,-0.01953 -1.726562,-0.507812 -3.644531,-1.148437 -5.957031,-1.183594 0.421875,0.339844 0.835938,0.933594 0.835938,1.957032 -0.351563,-1.378906 -1.789063,-2.101563 -2.492188,-2.375 -0.210937,-0.08203 -0.410156,-0.11719 -0.613281,-0.152346 -0.105469,0.140625 -0.328125,0.378906 -0.699219,0.519531 -0.214843,-0.113281 -0.390625,0.08984 -0.359375,0.15625 0.01172,0.03125 0.0078,0.0625 -0.01953,0.09766 -0.207031,0.265624 -0.882813,0.136718 -1.386719,-0.03516 -0.582031,-0.203125 -0.558594,0.199219 -0.445312,0.398438 0.183594,0.324219 0.359375,0.53125 0.445312,0.710937 0.773438,1.574219 1.34375,2.609375 3.054688,3.585938 1.625,1.203125 3.667968,1.820312 5.746094,1.890625 0.753906,0.269531 2.496093,0.75 4.679687,0.402343 -0.421875,-0.285156 -0.847656,-0.566406 -0.988281,-0.851562 2.777344,-0.800781 5.175781,-2.625 6.15625,-5.375 0.01172,-0.03125 0.01953,-0.0625 0.03125,-0.09375 0.175781,-0.601562 -0.40625,-1.402344 -1.234375,-0.613281 0.714843,-1.722657 1.90625,-0.976563 1.652343,0.04297 0.949219,-1.277344 2.21875,-2.648438 3.910157,-3.167969 -1.546875,-0.714844 -3.066407,-0.09766 -4.0625,0.457031"
     id="path740" />
  <path
     fill-rule="nonzero"
     fill="#0d3158"
     fill-opacity="1"
     d="m 21.532671,27.951674 c 0.0625,-0.226563 0.08984,-0.785156 0,-0.957032 -0.453125,0 -1.148437,0.0078 -1.558594,-0.0039 0.933594,0.339844 1.558594,0.960938 1.558594,0.960938"
     id="path742" />
  <path
     fill-rule="nonzero"
     fill="#fccc21"
     fill-opacity="1"
     d="m 22.188921,26.135268 c 0,0.496093 -0.40625,0.894531 -0.90625,0.894531 h -1.539063 c -0.5,0 -0.910156,-0.398438 -0.910156,-0.894531 0,-0.496094 0.410156,-0.894532 0.910156,-0.894532 h 1.539063 c 0.5,0 0.90625,0.398438 0.90625,0.894532"
     id="path744" />
  <path
     fill-rule="nonzero"
     fill="#df9823"
     fill-opacity="1"
     d="m 21.255327,26.725111 c -0.902343,0.01172 -1.679687,0 -1.679687,0 0,0 1.273437,-0.07422 2.078125,-0.9375 0.214843,0.140625 0.253906,0.9375 -0.398438,0.9375"
     id="path746" />
  <path
     fill-rule="nonzero"
     fill="#0d3158"
     fill-opacity="1"
     d="m 21.548296,33.682142 c 0.0625,-0.222656 0.08984,-0.78125 0,-0.953124 -0.453125,0 -1.148438,0.0039 -1.558594,-0.0078 0.933594,0.339831 1.558594,0.960924 1.558594,0.960924"
     id="path748" />
  <path
     fill-rule="nonzero"
     fill="#fccc21"
     fill-opacity="1"
     d="m 22.20064,31.842299 c 0,0.492187 -0.40625,0.894531 -0.90625,0.894531 h -1.539063 c -0.5,0 -0.90625,-0.402344 -0.90625,-0.894531 0,-0.496094 0.40625,-0.890625 0.90625,-0.890625 h 1.539063 c 0.5,0 0.90625,0.394531 0.90625,0.890625"
     id="path750" />
  <path
     fill-rule="nonzero"
     fill="#df9823"
     fill-opacity="1"
     d="m 21.267046,32.432142 c -0.902344,0.0078 -1.675781,-0.0039 -1.675781,-0.0039 0,0 1.269531,-0.07031 2.074219,-0.9375 0.214843,0.144532 0.253906,0.9375 -0.398438,0.941406"
     id="path752" />
  <path
     fill-rule="nonzero"
     fill="#fccc21"
     fill-opacity="1"
     d="m 19.161577,16.354018 v 2.675781 h 2.722657 v -2.675781 h -2.722657"
     id="path754" />
  <path
     fill-rule="nonzero"
     fill="#df9823"
     fill-opacity="1"
     d="m 21.884234,19.025892 c -0.460938,0.109376 -0.433594,0.496094 -0.449219,0.640626 0,0 -1.097657,0.0078 -1.820313,0 0.0078,-0.04297 0.02344,-0.570313 -0.453125,-0.640626 0,0 2.546875,0 2.722657,0"
     id="path756" />
  <path
     fill-rule="nonzero"
     fill="#df9823"
     fill-opacity="1"
     d="m 20.751421,16.354018 v 2.707031 h 0.738281 v -2.707031 h -0.738281"
     id="path758" />
  <path
     fill-rule="nonzero"
     fill="#fccc21"
     fill-opacity="1"
     d="m 11.895952,32.979018 c -0.136718,-0.05078 -0.210937,-0.167969 -0.25,-0.253907 -0.08594,-0.195312 -0.08594,-0.457031 0.01172,-0.703125 0.09375,-0.242187 0.265625,-0.441406 0.464844,-0.53125 0.08984,-0.03516 0.21875,-0.07031 0.355469,-0.01953 0.203124,0.08203 0.316406,0.304687 0.316406,0.574219 0,0.125 -0.02734,0.257812 -0.07422,0.382812 -0.09375,0.246094 -0.269531,0.441406 -0.464844,0.53125 -0.08984,0.03906 -0.21875,0.07422 -0.359375,0.01953 z m 0.08203,-1.8125 c -0.285157,0.128906 -0.523438,0.390624 -0.652344,0.726562 -0.132813,0.335938 -0.132813,0.6875 -0.0078,0.976562 0.09375,0.210938 0.253907,0.367188 0.449219,0.445313 0.195312,0.07422 0.417969,0.0625 0.628906,-0.03125 0.289063,-0.125 0.527344,-0.390625 0.65625,-0.722656 0.234375,-0.601563 0.03125,-1.234375 -0.441406,-1.421875 -0.199219,-0.07422 -0.421875,-0.06641 -0.632812,0.02734"
     id="path760" />
  <path
     fill-rule="nonzero"
     fill="#a3e2fa"
     fill-opacity="1"
     d="m 12.384234,32.881361 c -0.15625,-0.04687 -0.535157,-0.15625 -0.988282,-0.171875 -0.324218,-0.01172 -0.640625,-0.195312 -0.617187,-0.292968 0.01563,-0.06641 0.09766,-0.105469 0.234375,-0.121094 0.3125,-0.04687 0.988281,-0.0078 1.71875,0.109375 -0.0625,0.175781 -0.160156,0.339843 -0.347656,0.476562"
     id="path762" />
  <path
     fill-rule="nonzero"
     fill="#ef2f2a"
     fill-opacity="1"
     d="m 13.532671,11.17433 c -0.01172,1.359375 -1.050781,1.785156 -1.351563,1.863281 0.101563,-0.300781 0.523438,-1.707031 1.351563,-1.863281"
     id="path764" />
  <path
     fill-rule="nonzero"
     fill="#fccc21"
     fill-opacity="1"
     d="m 22.208452,20.45558 c 0,0.496094 -0.402344,0.898438 -0.90625,0.898438 h -1.535156 c -0.503906,0 -0.910156,-0.402344 -0.910156,-0.898438 0,-0.492188 0.40625,-0.890625 0.910156,-0.890625 h 1.535156 c 0.503906,0 0.90625,0.398437 0.90625,0.890625"
     id="path766" />
  <path
     fill-rule="nonzero"
     fill="#df9823"
     fill-opacity="1"
     d="m 21.278765,21.04933 c -0.902344,0.0078 -1.679688,0 -1.679688,0 0,0 1.273438,-0.07813 2.078125,-0.941406 0.214844,0.144531 0.253906,0.9375 -0.398437,0.941406"
     id="path768" />
  <path
     fill-rule="nonzero"
     fill="#ffffff"
     fill-opacity="1"
     d="m 15.247515,33.42433 c 0.980469,0.652344 1.3125,1.621094 1.3125,1.621094 0,0 0.324219,-0.808594 -0.121094,-1.4375 0.890625,-0.257813 2.441406,0.148437 3.839844,0.695312 2.054687,0.804688 3.59375,1.074219 5.15625,0.804688 1.566406,-0.265625 2.386719,-0.589844 2.890625,-1.371094 0.265625,-0.414062 1.058594,-0.328125 0.835937,0.296875 -0.222656,0.625 -1.195312,2.414063 -3.023437,2.90625 -1.835938,0.492187 -4.859375,1.3125 -9.328125,0.195313 -1.199219,-0.300782 -4.007813,-1.046876 -5.15625,-2.523438 -0.230469,-0.296875 -0.289063,-0.847656 -0.300781,-0.933594 -0.01172,-0.105468 0.05859,-0.160156 0.308593,-0.117187 0.785157,0.140625 0.9375,-0.160157 1.230469,-0.492188 0.320312,-0.04297 1.457031,-0.242187 2.355469,0.355469"
     id="path770" />
  <path
     fill-rule="nonzero"
     fill="#409bdb"
     fill-opacity="1"
     d="m 28.833452,33.908705 c -1.367187,2.597656 -4.011718,3 -6.773437,3.085937 -1.125,0.02734 -2.242188,-0.109374 -3.207031,-0.355468 0.8125,0.08203 1.652343,0.01563 2.164062,-0.164063 -0.199219,-1.039062 -1.976562,-1.796875 -3.21875,-1.863281 -0.234375,-0.269531 -0.300781,-0.617188 -0.871094,-0.820312 0.402344,0.371093 0.367188,0.886718 0.570313,1.152343 1.015625,0.207031 2.253906,0.46875 2.847656,1.265625 -0.207031,0.269532 -2.042969,0.117188 -3.046875,-0.109375 -0.429688,-0.160156 -0.878906,-0.417969 -1.121094,-0.886719 -0.476562,0.535157 -1.234375,0.34375 -2.015625,-0.04687 -0.01172,-0.300786 -0.199219,-0.570317 -0.601562,-0.644536 0.08594,0.128906 0.109375,0.269532 0.109375,0.378906 -0.882813,-0.507812 -1.722656,-1.128906 -2.144532,-1.097656 -0.597656,0.04687 1.308594,3.390625 2.917969,3.746094 4.777344,2.757812 12.765625,1.546875 14.660157,-3.105469 0.265624,-0.671875 0.03125,-1.105469 -0.269532,-0.535156"
     id="path772" />
  <path
     fill-rule="nonzero"
     fill="#ffffff"
     fill-opacity="1"
     d="m 13.735796,34.857924 c 0.02344,0.289062 -0.203125,0.554687 -0.515625,0.582031 -0.308594,0.03516 -0.582031,-0.179687 -0.609375,-0.472656 -0.03125,-0.292969 0.199219,-0.554688 0.507812,-0.585938 0.308594,-0.03125 0.585938,0.183594 0.617188,0.476563"
     id="path774" />
  <path
     fill-rule="nonzero"
     fill="#0d3158"
     fill-opacity="1"
     d="m 13.466265,34.912611 c 0,0.144531 -0.132813,0.257813 -0.296875,0.257813 -0.160156,0 -0.292969,-0.113282 -0.292969,-0.257813 0,-0.144531 0.132813,-0.261719 0.292969,-0.261719 0.164062,0 0.296875,0.117188 0.296875,0.261719"
     id="path776" />
  <path
     fill-rule="nonzero"
     fill="#ffffff"
     fill-opacity="1"
     d="m 27.165484,30.146986 c -0.328126,1.132813 1.070312,2.660156 1.070312,2.660156 0,0 -0.632812,-1.980468 -1.070312,-2.660156"
     id="path778" />
  <path
     fill-rule="nonzero"
     fill="#ffffff"
     fill-opacity="1"
     d="m 28.145952,30.389174 c -0.480468,0.664062 0.425782,2.171875 0.425782,2.171875 0,0 -0.05078,-1.207031 -0.425782,-2.171875"
     id="path780" />
  <path
     fill-rule="nonzero"
     fill="#ffffff"
     fill-opacity="1"
     d="m 29.665484,32.11183 c 0.382812,-0.824219 1.140624,-1.652344 1.949218,-1.945312 -1.679687,0.203124 -2.058594,1.320312 -1.949218,1.945312"
     id="path782" />
  <path
     fill-rule="nonzero"
     fill="#ffffff"
     fill-opacity="1"
     d="m 20.520952,7.0297985 c -0.707031,-1.371094 -1.71875,-0.316407 -3.492187,-0.863281 -0.3125,1.449218 -0.625,4.0429685 -0.714844,4.4921875 1.210937,0.363281 2.277344,-0.7695315 3.722656,0.175781 -0.152343,-1.8750005 0.449219,-3.4335945 0.449219,-3.4335945 0,0 0.01953,-0.226562 0.03516,-0.371093"
     id="path784" />
  <path
     fill-rule="nonzero"
     fill="#a3e2fa"
     fill-opacity="1"
     d="m 20.524858,7.0219855 c -0.136718,-0.242187 -0.273437,-0.449218 -0.507812,-0.582031 -0.207031,2.226563 -0.261719,2.710937 -0.96875,4.0195315 0.441406,0.05469 0.765625,0.21875 0.992188,0.378906 -0.160157,-1.8750005 0.484374,-3.3476565 0.484374,-3.3476565 0,0 -0.0039,-0.386718 0,-0.46875"
     id="path786" />
  <path
     fill-rule="nonzero"
     fill="#ffffff"
     fill-opacity="1"
     d="m 24.020952,6.1587045 c -1.773437,0.546875 -2.789062,-0.507813 -3.496094,0.863281 0,0.46875 -0.0039,3.9257825 0.0039,4.1835945 1.699226,-1.5859385 2.867194,-0.152344 4.207038,-0.554688 -0.08984,-0.445312 -0.402344,-3.0390625 -0.714844,-4.4921875"
     id="path788" />
  <path
     fill-rule="nonzero"
     fill="#fccc21"
     fill-opacity="1"
     d="m 20.032671,13.756361 v 1.148438 h 0.984375 v -1.148438 h -0.984375"
     id="path790" />
  <path
     fill-rule="nonzero"
     fill="#fccc21"
     fill-opacity="1"
     d="m 20.532671,12.658705 0.488281,0.855469 -0.992187,0.0078 z m 0,0"
     id="path792" />
  <path
     fill-rule="nonzero"
     fill="#199545"
     fill-opacity="1"
     d="m 12.235796,16.041518 v -0.0039 c -0.0078,-0.0039 -0.0078,0 0,0.0039"
     id="path794" />
  <path
     fill-rule="nonzero"
     fill="#73c82c"
     fill-opacity="1"
     d="m 16.204546,21.658705 c 0,0 1.351562,-0.667969 1.484375,-1.355469 -0.417969,-0.402344 -1.476563,-0.445312 -1.476563,-0.445312 0,0 1.214844,-0.925782 1.164063,-1.59375 -0.605469,-0.285156 -1.683594,-0.121094 -1.683594,-0.121094 0.5,-0.691406 0.640625,-1.242188 0.621094,-1.726562 -0.628906,-0.105469 -1.601563,0.269531 -1.601563,0.269531 0,0 0.324219,-1.164063 0.0039,-1.769531 -0.585938,-0.15625 -1.40625,0.875 -1.40625,0.875 0,0 -0.292969,-1.273438 -0.976563,-1.949219 -0.6875,0.675781 -0.988281,1.949219 -0.988281,1.949219 0,0 -0.820313,-1.03125 -1.4062495,-0.875 -0.316406,0.605468 0.00781,1.769531 0.00781,1.769531 0,0 -0.972657,-0.375 -1.609376,-0.269531 -0.015624,0.484374 0.128907,1.035156 0.628907,1.726562 0,0 -1.082031,-0.164062 -1.6875,0.121094 -0.050781,0.667968 1.164062,1.59375 1.164062,1.59375 0,0 -1.058593,0.04297 -1.476562,0.445312 0.136719,0.6875 1.488281,1.355469 1.488281,1.355469 0,0 -0.804688,0.164063 -1.296875,0.722656 0.3125,0.414063 1.019531,0.8125 1.570313,0.90625 -0.476563,0.382813 -0.742188,0.683594 -0.863282,0.90625 0.773438,0.628907 2.3945315,0.714844 4.0195315,0.210938 0,0.308593 0.0039,2.816406 -0.375,3.964843 h 1.636718 c -0.378906,-1.148437 -0.375,-3.65625 -0.375,-3.964843 1.625,0.503906 3.25,0.417969 4.019532,-0.210938 -0.117188,-0.222656 -0.382813,-0.523437 -0.859376,-0.90625 0.550782,-0.09375 1.253907,-0.492187 1.570313,-0.90625 -0.496094,-0.558593 -1.296875,-0.722656 -1.296875,-0.722656"
     id="path796" />
  <path
     fill-rule="nonzero"
     fill="#199a47"
     fill-opacity="1"
     d="m 14.724077,21.701674 c 0.152344,-0.08203 0.9375,-0.324219 1.339844,-1.023438 -0.402344,-0.390625 -1.339844,-0.402344 -1.339844,-0.402344 0,0 0.835938,-0.550781 1.117188,-1.375 -0.714844,-0.207031 -1.460938,0 -1.460938,0 0,0 0.613281,-0.863281 0.6875,-1.59375 -0.6875,0.07813 -1.414062,0.4375 -1.414062,0.4375 0.207031,-0.453124 0.308593,-1.089843 0.21875,-1.644531 -0.339844,0.07031 -0.652344,0.460938 -0.839844,0.703125 -0.171875,-0.554687 -0.46875,-0.730468 -0.671875,-0.839844 -0.332031,0.488282 -0.398438,0.808594 -0.359375,1.480469 0.113281,-0.113281 0.292969,-0.289062 0.582031,-0.457031 0.179688,0.957031 -0.160156,1.65625 -0.160156,1.65625 0,0 0.421875,-0.273438 0.980469,-0.339844 0.02344,0.527344 -0.171875,1.078125 -0.730469,1.726563 0,0 0.492188,-0.296875 1.058594,-0.34375 -0.08984,0.746093 -0.546875,1.242187 -1.015625,1.667969 0.316406,-0.144532 0.851562,-0.132813 1.222656,-0.01172 -0.191406,0.566406 -0.632813,0.851562 -1.277344,1.203125 0.398438,0 0.808594,0.05469 1.039063,0.210937 -0.257813,0.484375 -0.890625,0.714844 -1.332032,0.839844 1.015626,0.386719 1.996094,0.550781 2.960938,0.316406 -0.07031,-0.289062 -0.433594,-0.636719 -0.859375,-0.878906 0.390625,-0.08984 0.96875,-0.210937 1.476563,-0.644531 -0.328126,-0.328125 -0.730469,-0.550782 -1.222657,-0.6875"
     id="path798" />
  <path
     fill-rule="nonzero"
     fill="#df9823"
     fill-opacity="1"
     d="m 21.622515,41.432142 c 0.132812,0.15625 0.226562,0.90625 -0.425781,0.960938 -1.117188,0.08594 -1.65625,-0.02734 -1.65625,-0.02734 0,0 1.5,-0.175781 2.082031,-0.933594"
     id="path800" />
  <path
     fill-rule="nonzero"
     fill="#df9823"
     fill-opacity="1"
     d="m 26.665484,18.463392 c 0.06641,-0.917968 0.503906,-1.132812 1.09375,-1.117187 0.335937,0.0078 0.839843,0.01172 2.0625,0 -0.6875,0.0625 -1.546876,0.421875 -1.660157,1.320313 -0.101562,0.832031 -0.109375,3.710937 -0.128906,4.9375 -0.605469,0.02344 -1.410156,0 -1.589844,0.04687 0.08984,-1.273437 0.15625,-4.269531 0.222657,-5.1875"
     id="path802" />
  <path
     fill-rule="nonzero"
     fill="#df9823"
     fill-opacity="1"
     d="m 20.536577,13.756361 v 1.148438 h 0.296875 v -1.148438 h -0.296875"
     id="path804" />
  <path
     fill-rule="nonzero"
     fill="#df9823"
     fill-opacity="1"
     d="m 20.833452,13.521986 -0.300781,-0.863281 v 0.855469 z m 0,0"
     id="path806" />
  <path
     fill-rule="nonzero"
     fill="#0d3158"
     fill-opacity="1"
     d="m 33.70064,47.084486 c 0.597656,0 1.105468,-0.117187 1.46875,-0.339844 l 0.167968,-0.101562 -0.02734,0.589844 v 3.105468 c 0,0.101563 -0.03906,0.1875 -0.125,0.265626 -0.191407,0.191406 -0.589844,0.308593 -1.03125,0.296874 H 6.8568905 c -0.445313,0.01172 -0.851563,-0.105468 -1.046875,-0.300781 -0.078125,-0.07813 -0.121094,-0.160156 -0.121094,-0.257812 v -3.082031 c 0,0.0078 -0.011719,-0.339844 -0.011719,-0.339844 l -0.00391,-0.171875 0.152344,0.07031 c 0.371094,0.175781 0.863281,0.265625 1.472656,0.265625 H 33.70064"
     id="path808" />
  <g
     clip-path="url(#clip-0)"
     id="g812"
     transform="translate(4.9232965,3.5805795)">
    <path
       fill="none"
       stroke-width="4.93307"
       stroke-linecap="butt"
       stroke-linejoin="miter"
       stroke="#0d3158"
       stroke-opacity="1"
       stroke-miterlimit="4"
       d="m 287.77344,45.760937 c 5.97656,0 11.05468,1.171875 14.6875,3.398438 l 1.67968,1.015625 -0.27343,-5.898438 V 13.221875 c 0,-1.015625 -0.39063,-1.875 -1.25,-2.65625 -1.91407,-1.914063 -5.89844,-3.085938 -10.3125,-2.96875 H 19.335938 C 14.882812,7.479687 10.820312,8.651562 8.867188,10.604687 8.085938,11.385937 7.65625,12.20625 7.65625,13.182812 v 30.820313 c 0,-0.07813 -0.117188,3.398437 -0.117188,3.398437 L 7.5,49.120312 9.023438,48.417187 C 12.734375,46.659375 17.65625,45.760937 23.75,45.760937 Z m 0,0"
       transform="matrix(0.1,0,0,-0.1,0,48.08)"
       id="path810" />
  </g>
  <path
     fill-rule="nonzero"
     fill="#a3e2fa"
     fill-opacity="1"
     d="m 31.868608,43.834486 c 0.269532,2.457032 -0.02734,2.074219 0,2.78125 0.230469,0.05859 2.082032,0.417969 2.746094,0.05859 0.664063,-0.359375 1.039063,-0.53125 0.730469,-0.890625 -0.304687,-0.359371 -1.839844,-1.332027 -2.453125,-1.43359 -0.613281,-0.105469 -0.855469,-0.332031 -1.023438,-0.515625"
     id="path814" />
  <path
     fill-rule="nonzero"
     fill="#a3e2fa"
     fill-opacity="1"
     d="m 9.2904845,43.912611 c 0.230468,0.769531 -0.421876,1.953125 0.011718,2.808594 -0.371094,-0.01172 -2.542968,0.08984 -2.953125,-0.0625 -0.433593,-0.160156 -1.3593748,-0.480469 -0.4375,-0.980469 0.921875,-0.5 3.25,-1.394531 3.378907,-1.765625"
     id="path816" />
  <g
     clip-path="url(#clip-1)"
     id="g820"
     transform="translate(4.9232965,3.5805795)">
    <path
       fill-rule="nonzero"
       fill="#ffffff"
       fill-opacity="1"
       d="m 28.777344,43.503906 c 0.597656,0 1.105468,-0.117187 1.46875,-0.339844 l 0.167968,-0.101562 -0.02734,0.589844 v 3.105468 c 0,0.101563 -0.03906,0.1875 -0.125,0.265626 -0.191407,0.191406 -0.589844,0.308593 -1.03125,0.296874 H 1.933594 C 1.488281,47.332031 1.082031,47.214844 0.886719,47.019531 0.808594,46.941406 0.765625,46.859375 0.765625,46.761719 v -3.082031 c 0,0.0078 -0.011719,-0.339844 -0.011719,-0.339844 L 0.75,43.167969 0.902344,43.238279 C 1.273438,43.41406 1.765625,43.503904 2.375,43.503904 Z m -1.6875,-0.894531 c 0.132812,-0.335937 0.199218,-0.617187 0.199218,-0.859375 0,-0.199219 -0.03516,-0.359375 -0.07031,-0.515625 -0.0039,-0.02734 -0.01953,-0.113281 -0.01953,-0.113281 l -0.04687,-0.332032 0.210937,0.183594 c 0.382813,0.339844 0.84375,0.515625 1.21875,0.65625 0,0 0.402344,0.167969 0.402344,0.167969 0.0078,0.0039 0.398437,0.214844 0.398437,0.214844 0.199219,0.132812 0.34375,0.296875 0.410157,0.449219 l 0.04297,0.09766 -0.09766,0.04297 C 29.574219,42.667969 29.273438,42.75 28.777344,42.75 h -1.75 z M 1.414062,42.636719 1.304688,42.609375 1.34375,42.503906 C 1.410156,42.3125 1.609375,42.101562 1.878906,41.9375 c 0.023438,-0.01172 0.1875,-0.09766 0.1875,-0.09766 0.011719,-0.0039 0.503906,-0.210938 0.503906,-0.210938 0.375,-0.140625 0.839844,-0.316406 1.222657,-0.65625 L 4.007812,40.78125 3.953125,41.128906 3.941406,41.210938 C 3.90625,41.363281 3.863281,41.539062 3.863281,41.75 c 0,0.25 0.066407,0.53125 0.199219,0.859375 L 4.125,42.75 h -1.75 c -0.371094,0 -0.695312,-0.03906 -0.960938,-0.113281 z m 3.21875,-3.289063 c -0.613281,0.839844 -1.574218,1.242188 -2.425781,1.601563 0,0 -0.402343,0.1875 -0.402343,0.1875 -0.015626,0.0039 -0.390626,0.171875 -0.390626,0.171875 -0.00781,0.0039 -0.144531,0.06641 -0.144531,0.06641 0,0 -0.21875,0.125 -0.21875,0.125 C 0.417969,41.84375 0,42.289062 0,43.386719 l 0.0117188,0.316406 v 3.066406 c 0,0.296875 0.1210932,0.570313 0.3515622,0.792969 0.347657,0.34375 0.925781,0.53125 1.582031,0.515625 h 27.277344 c 0.648438,0.01563 1.21875,-0.171875 1.570313,-0.515625 0.230469,-0.21875 0.347656,-0.496094 0.347656,-0.800781 l 0.0039,-2.539063 v -0.542968 c 0,-0.0039 0.01172,-0.390626 0.01172,-0.390626 0,-0.941406 -0.289062,-1.304687 -0.785156,-1.605468 -0.01172,-0.0078 -0.492188,-0.3125 -0.492188,-0.3125 0,0 -0.5625,-0.253906 -0.5625,-0.253906 -0.01563,-0.0078 -0.04687,-0.02734 -0.04687,-0.02734 0.01172,0.0078 -0.324219,-0.140625 -0.324219,-0.140625 -0.847656,-0.359375 -1.8125,-0.761719 -2.425781,-1.601563 0,0 -0.03516,-0.04297 -0.07031,-0.09375 -0.01563,0.05469 -0.03125,0.117188 -0.03125,0.117188 -0.05078,0.195312 -0.07422,0.386718 -0.07422,0.589844 0,0.367187 0.08594,0.695312 0.1875,1.074218 0.117188,0.433594 0.253906,0.941406 0.277344,1.609375 L 26.8125,42.75 H 4.34375 V 42.644531 C 4.367188,41.976562 4.507812,41.46875 4.617188,41.0625 4.71875,40.683594 4.8125,40.332031 4.8125,39.960938 c 0,-0.191407 -0.023438,-0.390626 -0.074219,-0.589844 0,0 -0.015625,-0.05859 -0.03125,-0.121094 -0.035156,0.04687 -0.074219,0.09766 -0.074219,0.09766"
       id="path818" />
  </g>
  <path
     fill-rule="nonzero"
     fill="#ffffff"
     fill-opacity="1"
     d="m 6.8725155,47.979018 h 0.582031 l 0.40625,1.128906 c 0.011719,0.02734 0.03125,0.117187 0.066406,0.273437 0.039063,-0.15625 0.0625,-0.246093 0.074219,-0.273437 l 0.394531,-1.128906 h 0.589844 l -0.847656,2.019531 h -0.417969 l -0.847656,-2.019531"
     id="path822" />
  <path
     fill-rule="nonzero"
     fill="#ffffff"
     fill-opacity="1"
     d="m 9.3022025,47.979018 v 2.019531 h 0.558594 v -2.019531 h -0.558594"
     id="path824" />
  <path
     fill-rule="nonzero"
     fill="#ffffff"
     fill-opacity="1"
     d="M 11.528765,49.244642 11.321734,48.58058 c -0.0078,-0.03516 -0.03516,-0.125 -0.06641,-0.273438 -0.03906,0.148438 -0.0625,0.238282 -0.07031,0.273438 l -0.207031,0.664062 z m -0.625,-1.265624 h 0.691406 l 0.699219,2.019531 h -0.550782 l -0.09766,-0.363281 h -0.785156 l -0.105469,0.363281 h -0.546875 l 0.695313,-2.019531"
     id="path826" />
  <path
     fill-rule="nonzero"
     fill="#ffffff"
     fill-opacity="1"
     d="m 13.380327,47.979018 h 0.589844 l 0.402344,1.128906 c 0.0078,0.02734 0.03125,0.117187 0.06641,0.273437 0.03516,-0.15625 0.0625,-0.246093 0.07031,-0.273437 l 0.402343,-1.128906 h 0.585938 l -0.847657,2.019531 H 14.23189 l -0.851563,-2.019531"
     id="path828" />
  <path
     fill-rule="nonzero"
     fill="#ffffff"
     fill-opacity="1"
     d="m 15.802202,47.979018 h 1.238282 v 0.445312 h -0.703126 v 0.347656 h 0.660157 v 0.433594 h -0.660157 v 0.34375 h 0.703126 v 0.449219 h -1.238282 v -2.019531"
     id="path830" />
  <path
     fill-rule="nonzero"
     fill="#ffffff"
     fill-opacity="1"
     d="m 18.165484,48.936049 c 0.226562,0 0.339843,-0.07422 0.339843,-0.253907 0,-0.210937 -0.105469,-0.277343 -0.335937,-0.277343 h -0.109375 v 0.53125 z M 17.54439,47.979018 h 0.574218 c 0.01563,0 0.02344,0 0.03516,0 0.277343,0 0.496093,0 0.667969,0.136718 0.144531,0.113282 0.222656,0.285156 0.222656,0.496094 0,0.308594 -0.15625,0.511719 -0.449219,0.574219 l 0.550781,0.8125 h -0.621094 l -0.464843,-0.789063 v 0.789063 h -0.515625 v -2.019531"
     id="path832" />
  <path
     fill-rule="nonzero"
     fill="#ffffff"
     fill-opacity="1"
     d="m 19.509234,47.979018 v 2.019531 h 0.558593 v -2.019531 h -0.558593"
     id="path834" />
  <path
     fill-rule="nonzero"
     fill="#ffffff"
     fill-opacity="1"
     d="m 20.942827,48.45558 h -0.449219 v -0.476562 h 1.453126 v 0.476562 h -0.453126 v 1.542969 H 20.942827 V 48.45558"
     id="path836" />
  <path
     fill-rule="nonzero"
     fill="#ffffff"
     fill-opacity="1"
     d="M 23.435015,49.244642 23.227984,48.58058 c -0.0078,-0.03516 -0.02734,-0.125 -0.06641,-0.273438 -0.03515,0.148438 -0.0625,0.238282 -0.07031,0.273438 l -0.203125,0.664062 z m -0.621094,-1.265624 h 0.6875 l 0.699219,2.019531 h -0.546875 l -0.101563,-0.363281 h -0.78125 l -0.105468,0.363281 h -0.546876 l 0.695313,-2.019531"
     id="path838" />
  <path
     fill-rule="nonzero"
     fill="#ffffff"
     fill-opacity="1"
     d="m 25.10689,49.623549 c 0.148437,0 0.25,-0.08984 0.25,-0.207031 0,-0.164063 -0.109375,-0.210938 -0.339844,-0.269532 -0.363281,-0.09766 -0.539062,-0.246094 -0.539062,-0.558594 0,-0.375 0.273437,-0.65625 0.695312,-0.65625 0.226562,0 0.425781,0.05859 0.597656,0.179688 l -0.171875,0.394531 c -0.125,-0.105469 -0.261719,-0.160156 -0.386719,-0.160156 -0.132812,0 -0.222656,0.07422 -0.222656,0.167969 0,0.148437 0.140625,0.175781 0.320313,0.226562 0.359375,0.09375 0.558593,0.226563 0.558593,0.601563 0,0.417969 -0.300781,0.710937 -0.773437,0.710937 -0.285156,0 -0.503906,-0.08984 -0.71875,-0.296875 l 0.25,-0.410156 c 0.160156,0.1875 0.320313,0.277344 0.480469,0.277344"
     id="path840" />
  <path
     fill-rule="nonzero"
     fill="#ffffff"
     fill-opacity="1"
     d="m 27.071734,47.979018 h 0.585937 l 0.40625,1.128906 c 0.0078,0.02734 0.03125,0.117187 0.06641,0.273437 0.03516,-0.15625 0.0625,-0.246093 0.07031,-0.273437 l 0.398437,-1.128906 h 0.589844 l -0.851563,2.019531 h -0.414063 l -0.851562,-2.019531"
     id="path842" />
  <path
     fill-rule="nonzero"
     fill="#ffffff"
     fill-opacity="1"
     d="m 29.505327,47.979018 v 2.019531 h 0.558594 v -2.019531 h -0.558594"
     id="path844" />
  <path
     fill-rule="nonzero"
     fill="#ffffff"
     fill-opacity="1"
     d="m 30.938921,48.45558 h -0.449219 v -0.476562 h 1.449219 v 0.476562 h -0.449219 v 1.542969 H 30.938921 V 48.45558"
     id="path846" />
  <path
     fill-rule="nonzero"
     fill="#ffffff"
     fill-opacity="1"
     d="M 33.431108,49.244642 33.224077,48.58058 c -0.0078,-0.03516 -0.02734,-0.125 -0.06641,-0.273438 -0.03906,0.148438 -0.0625,0.238282 -0.07031,0.273438 l -0.203124,0.664062 z m -0.621093,-1.265624 h 0.691406 l 0.699219,2.019531 h -0.550782 l -0.101562,-0.363281 h -0.78125 l -0.105469,0.363281 h -0.550781 l 0.699219,-2.019531"
     id="path848" />
  <path
     fill-rule="nonzero"
     fill="#ffffff"
     fill-opacity="1"
     d="m 65.786577,4.0337045 v 0.558594 c -1.992187,0.035156 -2.707031,0.835937 -2.707031,2.734375 v 8.0234375 c 0,3.683594 -2.34375,7.640625 -8.792969,7.640625 -5.675781,0 -8.585937,-3.238281 -8.585937,-7.488281 V 6.8227675 c 0,-1.902344 -0.535156,-2.195313 -2.558594,-2.230469 v -0.558594 h 7.640625 v 0.558594 H 50.51314 c -1.632813,0 -2.347656,0.449219 -2.347656,2.171875 v 8.2617185 c 0,4.007813 2.347656,6.417969 6.773437,6.417969 3.359375,0 6.777344,-1.398437 6.777344,-6.445312 V 8.0727675 c 0,-2.851563 -0.449219,-3.355469 -2.914063,-3.480469 v -0.558594 h 6.984375"
     id="path850" />
  <path
     fill-rule="nonzero"
     fill="#ffffff"
     fill-opacity="1"
     d="m 69.142046,19.928236 c 0,1.632813 0.386719,2.023438 1.992188,2.023438 v 0.5625 h -5.972657 v -0.5625 c 1.304688,0 1.988281,-0.714844 1.988281,-1.875 v -6.238282 c 0,-1.101562 -0.117187,-1.308593 -0.890624,-1.457031 L 65.247515,12.17433 v -0.476562 l 3.417969,-1.246094 h 0.476562 v 2.3125 c 1.992188,-1.246094 3.65625,-2.34375 5.113281,-2.34375 2.019531,0 3.175781,1.484375 3.175781,4.453125 0,3.953125 -0.207031,4.726562 -0.234374,5.886719 -0.03125,0.800781 0.445312,1.191406 1.660156,1.191406 h 0.65625 v 0.5625 h -6.386719 v -0.5625 c 0.859375,-0.03125 1.363281,-0.238282 1.691406,-0.566406 0.5625,-0.566407 0.625,-2.734376 0.625,-6.683594 0,-2.378906 -1.160156,-3.125 -2.351562,-3.125 -0.949219,0 -2.402344,0.832031 -3.949219,1.902344 v 6.449218"
     id="path852" />
  <path
     fill-rule="nonzero"
     fill="#ffffff"
     fill-opacity="1"
     d="m 83.602984,3.5844858 c 0.714843,0 1.304687,0.5039057 1.304687,1.1328127 0,0.621093 -0.589844,1.128906 -1.304687,1.128906 -0.714844,0 -1.277344,-0.507813 -1.277344,-1.128906 0,-0.628907 0.5625,-1.1328127 1.277344,-1.1328127 z m 1.21875,16.6718752 c 0,1.039063 0.566406,1.695313 2.140624,1.695313 v 0.5625 h -6.597656 v -0.5625 c 1.8125,0 2.464844,-0.59375 2.464844,-2.171875 v -5.972657 c 0,-1.160156 -0.148438,-1.304687 -0.917969,-1.457031 L 80.51314,12.084486 v -0.476562 l 3.863281,-1.335938 h 0.445313 v 9.984375"
     id="path854" />
  <path
     fill-rule="nonzero"
     fill="#ffffff"
     fill-opacity="1"
     d="M 93.01314,22.779799 88.704546,12.916518 C 88.259234,11.877455 87.872515,11.51808 87.395952,11.428236 l -0.921875,-0.144531 v -0.535156 h 6.0625 v 0.535156 c -1.8125,0.05859 -2.378906,0.292969 -1.664062,1.691406 l 3.152343,7.398438 3.027344,-6.863281 c 0.535156,-1.21875 0.269532,-2.082032 -1.898437,-2.226563 v -0.535156 h 5.171875 v 0.535156 c -1.128906,0.207031 -1.789063,0.859375 -2.351563,2.167969 l -4.097656,9.328125 H 93.01314"
     id="path856" />
  <path
     fill-rule="nonzero"
     fill="#ffffff"
     fill-opacity="1"
     d="m 108.30611,14.193861 c -0.32422,-1.929687 -1.51562,-3.210937 -2.9414,-3.210937 -0.98048,0 -2.46485,0.445312 -3.15235,3.210937 z m -6.18359,0.773438 c -0.0547,0.445312 -0.11329,0.859375 -0.11329,1.246093 0,3.089844 2.16797,5.171876 4.51173,5.171876 1.48828,0 2.64453,-0.59375 3.77734,-1.933594 l 0.32422,0.355468 c -1.24609,1.578126 -3.11719,3.0625 -5.28906,3.0625 -2.91016,0 -5.16798,-2.644531 -5.16798,-6.089843 0,-3.152344 2.10938,-6.359375 5.73438,-6.359375 4.00782,0 3.92188,2.882812 4.90235,3.863281 v 0.683594 h -8.67969"
     id="path858" />
  <path
     fill-rule="nonzero"
     fill="#ffffff"
     fill-opacity="1"
     d="m 116.20846,20.342299 c 0,1.21875 0.44922,1.609375 1.93359,1.609375 h 1.12891 v 0.5625 h -7.04297 v -0.5625 c 1.51562,-0.03125 1.99219,-0.65625 1.99219,-2.230469 v -6.863281 l -1.99219,-0.714844 v -0.503906 l 3.38672,-1.1875 h 0.59375 v 3.148437 h 0.0625 c 1.48437,-2.4375 1.83984,-3 2.82031,-3 0.35937,0 0.44531,0.02734 1.01172,0.265625 0.29687,0.117188 0.83203,0.238282 1.54297,0.445313 l -0.71094,1.785156 c -0.44531,-0.0625 -1.01172,-0.210937 -1.57813,-0.480469 -0.32421,-0.148437 -0.67968,-0.292968 -1.03906,-0.292968 -0.53125,0 -0.85937,0.359374 -1.16015,0.773437 -0.38282,0.53125 -0.71094,1.039063 -0.94922,1.484375 v 5.761719"
     id="path860" />
  <path
     fill-rule="nonzero"
     fill="#ffffff"
     fill-opacity="1"
     d="m 123.31783,19.510268 c 0.35547,1.785156 1.48438,2.796874 2.82422,2.796874 1.1875,0 2.10938,-0.894531 2.10938,-1.964843 0,-0.621094 -0.14844,-1.007813 -0.95313,-1.8125 -2.10937,-2.109375 -4.45703,-2.316407 -4.45703,-4.78125 0,-1.960938 1.54687,-3.328125 3.80469,-3.328125 0.80078,0 1.63281,0.179687 2.3789,0.476562 l 0.0586,2.703125 h -0.50782 c -0.20703,-1.515625 -1.1875,-2.464843 -2.375,-2.464843 -0.98046,0 -1.8125,0.683593 -1.8125,1.660156 0,2.617187 5.52735,3.0625 5.52735,6.6875 0,1.929687 -1.60547,3.386718 -3.6875,3.386718 -0.5625,0 -0.97656,-0.08984 -1.30469,-0.207031 -0.32812,-0.08984 -0.56641,-0.175781 -0.80078,-0.175781 -0.17969,0 -0.35938,0.117188 -0.50781,0.351562 h -0.44532 l -0.32812,-3.328124 h 0.47656"
     id="path862" />
  <path
     fill-rule="nonzero"
     fill="#ffffff"
     fill-opacity="1"
     d="m 134.58736,3.5844858 c 0.71485,0 1.30469,0.5039057 1.30469,1.1328127 0,0.621093 -0.58984,1.128906 -1.30469,1.128906 -0.71484,0 -1.27734,-0.507813 -1.27734,-1.128906 0,-0.628907 0.5625,-1.1328127 1.27734,-1.1328127 z m 1.21875,16.6718752 c 0,1.039063 0.5625,1.695313 2.14063,1.695313 v 0.5625 h -6.59766 v -0.5625 c 1.8125,0 2.46484,-0.59375 2.46484,-2.171875 v -5.972657 c 0,-1.160156 -0.14843,-1.304687 -0.91796,-1.457031 l -1.39844,-0.265625 v -0.476562 l 3.86328,-1.335938 h 0.44531 v 9.984375"
     id="path864" />
  <path
     fill-rule="nonzero"
     fill="#ffffff"
     fill-opacity="1"
     d="m 145.72408,10.748549 -0.47656,1.304687 h -3.19531 v 6.925782 c 0,1.867187 1.33593,2.496093 1.96093,2.496093 0.65235,0 1.2461,-0.507812 1.8086,-1.492187 l 0.47656,0.449218 c -0.71094,1.546876 -1.87109,2.4375 -3.23828,2.4375 -1.75,0 -3,-1.457031 -3,-3.445312 v -7.371094 h -1.36719 v -0.476562 c 1.16016,-0.5625 2.16797,-1.9296885 2.85156,-3.7734385 h 0.50782 v 2.9453135 h 3.67187"
     id="path866" />
  <g
     clip-path="url(#clip-2)"
     id="g870"
     transform="translate(4.9232965,3.5805795)">
    <path
       fill-rule="nonzero"
       fill="#ffffff"
       fill-opacity="1"
       d="m 151.89453,10.464844 c 0.89063,-2.257813 0.32422,-2.703125 -1.42578,-2.761719 V 7.167969 h 4.92969 v 0.535156 c -1.21875,0.144531 -1.89844,0.980469 -2.46485,2.375 l -5.05468,12.597656 c -0.88672,2.199219 -1.57032,3.179688 -2.60938,3.179688 -0.71484,0 -1.21875,-0.445313 -1.21875,-1.039063 0,-1.21875 1.72266,-0.921875 2.46484,-1.664062 0.32813,-0.328125 0.77344,-1.101563 1.01172,-1.691406 l 0.89063,-2.234376 -4.60547,-9.773437 c -0.56641,-1.214844 -1.09766,-1.722656 -2.34766,-1.75 V 7.167969 h 5.97266 v 0.535156 c -1.8125,0.027344 -2.01953,0.5625 -1.42578,1.8125 l 3.35937,7.246094 2.52344,-6.296875"
       id="path868" />
  </g>
  <path
     fill-rule="nonzero"
     fill="#ffffff"
     fill-opacity="1"
     d="m 49.591265,33.658705 c -1.871094,0 -3.535157,3.59375 -3.535157,6.566406 0,2.492188 1.070313,3.714844 2.078126,3.714844 2.378906,0 3.777343,-3.863281 3.777343,-6.597656 0,-2.082031 -1.011719,-3.683594 -2.320312,-3.683594 z m 1.515625,-1.101563 c 0.863281,0 2.703125,1.1875 2.703125,4.371094 0,5.644532 -5.613281,8.109375 -7.011719,8.109375 -1.394531,0 -2.644531,-2.226562 -2.644531,-4.695312 0,-4.8125 5.171875,-7.785157 6.953125,-7.785157"
     id="path872" />
  <g
     clip-path="url(#clip-3)"
     id="g876"
     transform="translate(4.9232965,3.5805795)">
    <path
       fill-rule="nonzero"
       fill="#ffffff"
       fill-opacity="1"
       d="M 49.949219,30.316406 50.039062,29.75 c 0.714844,-0.08984 1.425782,-0.207031 2.167969,-0.386719 0.445313,-2.4375 1.335938,-4.992187 3,-6.65625 1.039063,-1.039062 2.347657,-1.601562 3.507813,-1.601562 1.160156,0 2.109375,0.652343 2.109375,1.425781 0,0.472656 -0.359375,0.859375 -0.835938,0.859375 -0.976562,0 -1.78125,-1.21875 -2.640625,-1.21875 -1.160156,0 -2.109375,1.308594 -2.527344,3.269531 l -0.800781,3.894532 h 2.554688 l -0.296875,0.980468 h -2.4375 l -1.511719,8.675782 c -1.160156,6.65625 -4.550781,9.03125 -7.34375,9.03125 -1.246094,0 -2.285156,-0.625 -2.285156,-1.367188 0,-0.476562 0.476562,-0.890625 0.980469,-0.890625 1.097656,0 1.691406,1.308594 2.824218,1.308594 0.683594,0 1.273438,-0.328125 1.8125,-0.863281 1.484375,-1.484376 2.046875,-6.5625 2.167969,-7.277344 L 52,30.316406 h -2.050781"
       id="path874" />
  </g>
  <path
     fill-rule="nonzero"
     fill="#ffffff"
     fill-opacity="1"
     d="m 83.243608,43.283705 c -2.941406,1.515625 -6.714843,1.871094 -7.960937,1.871094 -6.507813,0 -9.539063,-5.019531 -9.539063,-9.359375 0,-4.457032 3.121094,-10.042969 10.371094,-10.042969 3.175782,0 5.289063,1.011719 5.910156,1.011719 0.269532,0 0.507813,-0.05859 0.683594,-0.207032 h 0.417969 v 4.8125 h -0.59375 c -0.804687,-3.714843 -3.328125,-4.871093 -6.09375,-4.871093 -5.226563,0 -7.902344,4.339843 -7.902344,9.121093 0,6.089844 4.277344,8.792969 7.695313,8.792969 1.367187,0 2.882812,-0.296875 4.546875,-1.128906 v -3.742187 c 0,-1.691407 -0.59375,-2.257813 -2.375,-2.257813 h -1.101563 v -0.535156 h 8.019532 v 0.535156 c -1.484376,0.08984 -2.078126,0.59375 -2.078126,1.871094 v 4.128906"
     id="path878" />
  <path
     fill-rule="nonzero"
     fill="#ffffff"
     fill-opacity="1"
     d="m 89.790484,42.334486 c 0,1.21875 0.566406,1.78125 1.726562,1.78125 h 0.503906 v 0.566406 h -6.683594 v -0.566406 c 1.902344,0 2.464844,-0.5625 2.464844,-1.992187 V 27.775892 c 0,-0.835937 -0.08984,-1.097656 -0.921875,-1.191406 L 85.54439,26.436049 v -0.503907 l 3.804687,-1.21875 h 0.441407 v 17.621094"
     id="path880" />
  <path
     fill-rule="nonzero"
     fill="#ffffff"
     fill-opacity="1"
     d="m 99.368608,39.154799 c -0.5625,0.328125 -1.039062,0.535156 -1.753906,0.832031 -1.8125,0.742188 -2.492187,1.042969 -2.492187,2.261719 0,1.066406 0.855469,1.75 1.75,1.75 0.476562,0 0.832031,-0.148438 2.496093,-1.308594 z m -5.882812,-2.703125 c -0.05859,-0.179688 -0.08984,-0.269532 -0.08984,-0.417969 0,-1.039063 2.46875,-3.445313 4.398438,-3.445313 0.894531,0 2.285156,0.414063 3.117186,1.578126 0.44922,0.621093 0.44922,1.007812 0.44922,2.550781 v 3.980469 c 0,2.378906 0,2.914062 0.77344,2.914062 0.32422,0 0.71094,-0.03125 1.45312,-0.652344 l 0.14844,0.445313 c -1.60156,1.304687 -2.4375,1.632812 -2.94141,1.632812 -1.218746,0 -1.335934,-1.339843 -1.363278,-1.808593 -2.050781,1.6875 -2.644531,1.808593 -3.453124,1.808593 -1.71875,0 -2.757813,-0.980469 -2.757813,-2.433593 0,-1.8125 1.601563,-2.4375 3.503906,-2.914063 0.625,-0.148437 1.605469,-0.503906 2.644531,-1.128906 v -2.347657 c 0,-0.832031 0,-1.308593 -0.503906,-1.902343 -0.386718,-0.476563 -1.011718,-0.859375 -1.664062,-0.859375 -0.980469,0 -1.84375,0.832031 -1.84375,1.453125 0,0.179687 0.03125,0.296875 0.148437,0.566406 l -2.019535,0.980469"
     id="path882" />
  <path
     fill-rule="nonzero"
     fill="#ffffff"
     fill-opacity="1"
     d="m 105.20064,41.678236 c 0.35938,1.785156 1.48438,2.796875 2.82422,2.796875 1.1875,0 2.10938,-0.894531 2.10938,-1.960937 0,-0.625 -0.14844,-1.011719 -0.95313,-1.816406 -2.10547,-2.105469 -4.45313,-2.316407 -4.45313,-4.78125 0,-1.960938 1.54298,-3.328126 3.80079,-3.328126 0.80078,0 1.63281,0.179688 2.37891,0.472657 l 0.0586,2.707031 h -0.50781 c -0.20703,-1.515625 -1.1875,-2.46875 -2.375,-2.46875 -0.98047,0 -1.8125,0.683594 -1.8125,1.664062 0,2.617188 5.52734,3.0625 5.52734,6.6875 0,1.929688 -1.60547,3.386719 -3.68359,3.386719 -0.5625,0 -0.98047,-0.08594 -1.3086,-0.207031 -0.32422,-0.08984 -0.5664,-0.175781 -0.80078,-0.175781 -0.17969,0 -0.35547,0.113281 -0.5039,0.355469 h -0.44922 l -0.32423,-3.332032 h 0.47266"
     id="path884" />
  <g
     clip-path="url(#clip-4)"
     id="g888"
     transform="translate(4.9232965,3.5805795)">
    <path
       fill-rule="nonzero"
       fill="#ffffff"
       fill-opacity="1"
       d="m 113.55859,29.574219 c -1.13281,0 -2.88281,0.621093 -2.88281,3.386719 0,1.75 0.89063,4.101562 3.14844,4.101562 1.72266,0 2.85156,-1.429688 2.85156,-3.480469 0,-2.550781 -1.30469,-4.007812 -3.11719,-4.007812 z m 0.83204,17.617187 c 2.52343,0 4.89843,-1.664062 4.89843,-3.535156 0,-1.097656 -0.91797,-1.664062 -1.98828,-1.753906 -0.77344,-0.08984 -4.51562,-0.121094 -5.375,-0.238282 -0.83594,0.980469 -1.93359,1.398438 -1.93359,2.554688 0,1.398438 1.96094,2.972656 4.39844,2.972656 z m 6.74609,-15.417968 c -0.44922,-0.03125 -1.84766,-0.152344 -2.97266,-0.359376 0.17578,0.328126 0.50391,0.949219 0.50391,1.902344 0,2.199219 -1.89844,4.308594 -5.19922,4.308594 -0.5625,0 -0.83203,-0.05859 -1.36719,-0.238281 -0.47656,0.507812 -1.8125,0.832031 -1.8125,1.515625 0,0.746094 1.27735,1.039062 4.25,1.070312 3.35547,0.02734 4.51563,0.179688 5.40625,1.070313 0.71094,0.714843 0.89063,1.453125 0.89063,2.078125 0,1.929687 -2.61328,4.902344 -8.10938,4.902344 -3.08984,0 -4.57812,-1.367188 -4.57812,-2.824219 0,-1.722657 1.8164,-1.988281 3.17969,-3.648438 -1.60157,-0.152343 -2.82032,-1.160156 -2.82032,-2.113281 0,-1.367188 1.99219,-1.425781 3.03125,-2.199219 -1.8125,-0.710937 -2.85547,-1.988281 -2.85547,-3.683593 0,-2.558594 2.28907,-4.546876 5.23047,-4.546876 1.36719,0 2.52735,0.414063 3.32813,1.1875 1.33594,0 2.58594,-0.148437 3.89453,-0.296874 v 1.875"
       id="path886" />
  </g>
  <path
     fill-rule="nonzero"
     fill="#ffffff"
     fill-opacity="1"
     d="m 133.49361,44.322768 c 1.75391,0 3.74219,-1.78125 3.74219,-4.753907 0,-3.386719 -2.07813,-6.269531 -4.57422,-6.269531 -1.96094,0 -3.77344,2.023438 -3.77344,4.578125 0,3.597656 2.05079,6.445313 4.60547,6.445313 z m -0.41406,-11.734376 c 3.625,0 6.38672,2.703126 6.38672,6.242188 0,3.503906 -2.76172,6.207031 -6.30078,6.207031 -3.67969,0 -6.50391,-2.671875 -6.50391,-6.148437 0,-4.101563 3.32813,-6.300782 6.41797,-6.300782"
     id="path890" />
  <g
     clip-path="url(#clip-5)"
     id="g894"
     transform="translate(4.9232965,3.5805795)">
    <path
       fill-rule="nonzero"
       fill="#ffffff"
       fill-opacity="1"
       d="m 148.33203,41.371094 -3.53906,-8.382813 -3.56641,8.382813 h -0.82812 l -4.42969,-9.988282 c -0.41406,-0.917968 -0.83594,-1.363281 -2.19922,-1.511718 v -0.535156 h 5.76563 v 0.535156 c -1.75391,0.08594 -1.875,0.59375 -1.25,1.988281 l 3.21093,7.164063 2.91016,-6.894532 c -0.65234,-1.515625 -1.16016,-2.050781 -2.19922,-2.171875 l -0.71094,-0.08594 v -0.535156 h 6.14844 v 0.535156 c -1.45703,0.02734 -1.89844,0.472656 -1.27734,1.957031 l 2.91015,7.074219 2.85547,-6.953125 c 0.65235,-1.574219 0.14844,-2.078125 -1.72656,-2.078125 v -0.535156 h 4.99219 v 0.535156 c -1.12891,0.113281 -1.83985,0.679687 -2.4375,2.136718 l -3.82813,9.363282 h -0.80078"
       id="path892" />
  </g>
</svg>
